<svg id="Layer_1" data-name="Layer 1" xmlns="http://www.w3.org/2000/svg" viewBox="0 0 579.71 947.57"><defs><style>.cls-1{font-size:36px;font-family:Roboto-Medium, Roboto;}.cls-2{fill:#8f8f8f;}.cls-10,.cls-11,.cls-12,.cls-13,.cls-3,.cls-4,.cls-5,.cls-6,.cls-7,.cls-8,.cls-9{fill:none;stroke:#8f8f8f;stroke-miterlimit:10;}.cls-3{stroke-width:4px;}.cls-4{stroke-width:7.5px;}.cls-5{stroke-width:4.5px;}.cls-6{stroke-width:6px;}.cls-7{stroke-width:4.8px;}.cls-8{stroke-width:5px;}.cls-9{stroke-width:3px;}.cls-10{stroke-width:2.5px;}.cls-11{stroke-width:2px;}.cls-12{stroke-width:5.47px;}.cls-13{stroke-width:7px;}</style></defs><title>Icons</title><text class="cls-1" transform="translate(109.04 34.44)">Pending &amp; Failed Exports</text><text class="cls-1" transform="translate(109.04 224.44)">Planned Asset Inventory</text><text class="cls-1" transform="translate(110.04 398.44)">Asset Transfers</text><text class="cls-1" transform="translate(109.04 579.44)">Planned inventory Report</text><text class="cls-1" transform="translate(108.04 752.44)">Third Party Physical Location</text><text class="cls-1" transform="translate(110.04 928.44)">Assets Hierarchy</text><rect class="cls-2" x="31.5" y="882.57" width="15" height="15"/><rect class="cls-2" x="31.5" y="932.57" width="15" height="15"/><rect class="cls-2" x="63" y="932.57" width="15" height="15"/><rect class="cls-2" y="932.57" width="15" height="15"/><line class="cls-3" x1="39" y1="897.57" x2="39" y2="936.57"/><polyline class="cls-3" points="7 933.57 7 923.57 70 923.57 70 938.57"/><path class="cls-4" d="M542,768c0,11-10.5,25.5-19.5,36.5-7-8-20.5-25.45-20.5-36.5a20,20,0,0,1,40,0Z" transform="translate(-489 -33.43)"/><circle class="cls-5" cx="33" cy="735.57" r="9"/><ellipse class="cls-6" cx="34" cy="188.67" rx="24" ry="8.61"/><path class="cls-7" d="M547,235.11c0,4.75-10.75,8.6-24,8.6s-24-3.85-24-8.6" transform="translate(-489 -33.43)"/><path class="cls-8" d="M547,248.11c-.51,4.72-10.75,8.6-24,8.6s-22.5-4.21-24-8.6" transform="translate(-489 -33.43)"/><path class="cls-8" d="M546.5,261.5c0,4.75-10.25,8.21-23.5,8.21s-23.5-3.46-23.5-8.21" transform="translate(-489 -33.43)"/><line class="cls-7" x1="9.5" y1="188.07" x2="10.5" y2="229.07"/><line class="cls-8" x1="58.5" y1="188.07" x2="57.5" y2="229.07"/><ellipse class="cls-6" cx="31" cy="369.67" rx="24" ry="8.61"/><path class="cls-7" d="M544,416.11c0,4.75-10.75,8.6-24,8.6s-24-3.85-24-8.6" transform="translate(-489 -33.43)"/><path class="cls-8" d="M520,437.71c-13.25,0-22.5-4.21-24-8.6" transform="translate(-489 -33.43)"/><path class="cls-8" d="M520,450.71c-13.25,0-23.5-3.46-23.5-8.21" transform="translate(-489 -33.43)"/><line class="cls-7" x1="6.5" y1="369.07" x2="7.5" y2="410.07"/><line class="cls-8" x1="55.5" y1="369.07" x2="55.5" y2="394.57"/><line class="cls-9" x1="41" y1="398.07" x2="41" y2="419.07"/><polyline class="cls-9" points="34 403.07 41.5 396.57 48 403.07"/><line class="cls-9" x1="52.51" y1="416.07" x2="52.49" y2="395.07"/><polyline class="cls-9" points="59.5 411.06 52.01 417.57 45.5 411.07"/><ellipse class="cls-6" cx="31" cy="546.67" rx="24" ry="8.61"/><path class="cls-7" d="M544,593.11c0,4.75-10.75,8.6-24,8.6s-24-3.85-24-8.6" transform="translate(-489 -33.43)"/><path class="cls-8" d="M520,614.71c-13.25,0-22.5-4.21-24-8.6" transform="translate(-489 -33.43)"/><path class="cls-8" d="M520,627.71c-13.25,0-23.5-3.46-23.5-8.21" transform="translate(-489 -33.43)"/><line class="cls-7" x1="6.5" y1="546.07" x2="7.5" y2="587.07"/><line class="cls-8" x1="55.5" y1="546.07" x2="55.5" y2="571.57"/><polygon class="cls-10" points="41.5 575.07 41.5 594.07 56.5 594.07 56.5 582.07 50.5 575.07 41.5 575.07"/><polyline class="cls-11" points="49.5 576.07 49.5 582.07 55.5 582.07"/><line class="cls-11" x1="44" y1="586.57" x2="53" y2="586.57"/><line class="cls-11" x1="44" y1="590.57" x2="53" y2="590.57"/><line class="cls-12" x1="59.31" y1="4.02" x2="27.5" y2="36.07"/><polyline class="cls-12" points="41.5 3.07 61.91 2.78 61.5 22.07"/><polyline class="cls-13" points="36 7.57 16 7.57 16 48.57 56 48.57 56 28.57"/></svg>