<svg id="Layer_1" data-name="Layer 1" xmlns="http://www.w3.org/2000/svg" viewBox="0 0 56.49 61.71"><defs><style>.cls-1,.cls-2,.cls-3,.cls-4{fill:none;stroke:#8f8f8f;stroke-miterlimit:10;}.cls-1{stroke-width:6px;}.cls-2{stroke-width:4.8px;}.cls-3{stroke-width:5px;}.cls-4{stroke-width:3px;}</style></defs><title>Icon Asset Transfers</title><ellipse class="cls-1" cx="27" cy="11.61" rx="24" ry="8.61"/><path class="cls-2" d="M544,416.11c0,4.75-10.75,8.6-24,8.6s-24-3.85-24-8.6" transform="translate(-493 -391.5)"/><path class="cls-3" d="M520,437.71c-13.25,0-22.5-4.21-24-8.6" transform="translate(-493 -391.5)"/><path class="cls-3" d="M520,450.71c-13.25,0-23.5-3.46-23.5-8.21" transform="translate(-493 -391.5)"/><line class="cls-2" x1="2.5" y1="11" x2="3.5" y2="52"/><line class="cls-3" x1="51.5" y1="11" x2="51.5" y2="36.5"/><line class="cls-4" x1="37" y1="40" x2="37" y2="61"/><polyline class="cls-4" points="30 45 37.5 38.5 44 45"/><line class="cls-4" x1="48.51" y1="58" x2="48.49" y2="37"/><polyline class="cls-4" points="55.5 52.99 48.01 59.5 41.5 53.01"/></svg>