<svg id="Layer_1" data-name="Layer 1" xmlns="http://www.w3.org/2000/svg" viewBox="0 0 510.95 61.71"><defs><style>.cls-1{font-size:36px;font-family:Roboto-Medium, Roboto;}.cls-2,.cls-3,.cls-4,.cls-5,.cls-6{fill:none;stroke:#8f8f8f;stroke-miterlimit:10;}.cls-2{stroke-width:6px;}.cls-3{stroke-width:4.8px;}.cls-4{stroke-width:5px;}.cls-5{stroke-width:2.5px;}.cls-6{stroke-width:2px;}</style></defs><title>Planned inventory Report</title><text class="cls-1" transform="translate(105.04 44.38)">Planned inventory Report</text><ellipse class="cls-2" cx="27" cy="11.61" rx="24" ry="8.61"/><path class="cls-3" d="M544,593.11c0,4.75-10.75,8.6-24,8.6s-24-3.85-24-8.6" transform="translate(-493 -568.5)"/><path class="cls-4" d="M520,614.71c-13.25,0-22.5-4.21-24-8.6" transform="translate(-493 -568.5)"/><path class="cls-4" d="M520,627.71c-13.25,0-23.5-3.46-23.5-8.21" transform="translate(-493 -568.5)"/><line class="cls-3" x1="2.5" y1="11" x2="3.5" y2="52"/><line class="cls-4" x1="51.5" y1="11" x2="51.5" y2="36.5"/><polygon class="cls-5" points="37.5 40 37.5 59 52.5 59 52.5 47 46.5 40 37.5 40"/><polyline class="cls-6" points="45.5 41 45.5 47 51.5 47"/><line class="cls-6" x1="40" y1="51.5" x2="49" y2="51.5"/><line class="cls-6" x1="40" y1="55.5" x2="49" y2="55.5"/></svg>